{
	"asset":{
		"generator":"Khronos glTF Blender I/O v4.0.44",
		"version":"2.0"
	},
	"extensionsUsed":[
		"KHR_materials_emissive_strength"
	],
	"scene":0,
	"scenes":[
		{
			"name":"Scene",
			"nodes":[
				0,
				1,
				2,
				3,
				4,
				5,
				6
			]
		}
	],
	"nodes":[
		{
			"mesh":0,
			"name":"Glissiere",
			"translation":[
				0,
				0.029999999329447746,
				0
			]
		},
		{
			"mesh":1,
			"name":"Carcasse"
		},
		{
			"mesh":2,
			"name":"Chien",
			"translation":[
				0,
				0.024000000208616257,
				0.057999998331069946
			]
		},
		{
			"mesh":3,
			"name":"Detente",
			"translation":[
				0,
				-0.0020000000949949026,
				-0.03200000151991844
			]
		},
		{
			"mesh":4,
			"name":"Chargeur",
			"translation":[
				0,
				0,
				0.019999999552965164
			]
		},
		{
			"name":"Bouche",
			"translation":[
				0,
				0.029999999329447746,
				-0.18199999630451202
			]
		},
		{
			"name":"Visee",
			"translation":[
				0,
				0.057500001043081284,
				-0.1574999988079071
			]
		}
	],
	"materials":[
		{
			"doubleSided":true,
			"name":"acier_noir",
			"pbrMetallicRoughness":{
				"baseColorFactor":[
					0.03310476616024971,
					0.03310476616024971,
					0.036306485533714294,
					1
				],
				"metallicFactor":0.75,
				"roughnessFactor":0.41999998688697815
			}
		},
		{
			"doubleSided":true,
			"emissiveFactor":[
				0.13286831974983215,
				1,
				0.07323895394802094
			],
			"extensions":{
				"KHR_materials_emissive_strength":{
					"emissiveStrength":4
				}
			},
			"name":"tritium",
			"pbrMetallicRoughness":{
				"baseColorFactor":[
					0.31854677200317383,
					1,
					0.21404114365577698,
					1
				],
				"metallicFactor":0,
				"roughnessFactor":0.4000000059604645
			}
		},
		{
			"doubleSided":true,
			"name":"polymere",
			"pbrMetallicRoughness":{
				"baseColorFactor":[
					0.015325203537940979,
					0.015325203537940979,
					0.01633814536035061,
					1
				],
				"metallicFactor":0,
				"roughnessFactor":0.6499999761581421
			}
		},
		{
			"doubleSided":true,
			"name":"caoutchouc",
			"pbrMetallicRoughness":{
				"baseColorFactor":[
					0.006571403704583645,
					0.006571403704583645,
					0.006571403704583645,
					1
				],
				"metallicFactor":0,
				"roughnessFactor":0.8999999761581421
			}
		},
		{
			"doubleSided":true,
			"name":"acier_brut",
			"pbrMetallicRoughness":{
				"baseColorFactor":[
					0.23302200436592102,
					0.23302200436592102,
					0.24286681413650513,
					1
				],
				"roughnessFactor":0.2800000011920929
			}
		}
	],
	"meshes":[
		{
			"name":"Glissiere",
			"primitives":[
				{
					"attributes":{
						"POSITION":0,
						"NORMAL":1
					},
					"indices":2,
					"material":0
				},
				{
					"attributes":{
						"POSITION":3,
						"NORMAL":4
					},
					"indices":5,
					"material":1
				}
			]
		},
		{
			"name":"Carcasse",
			"primitives":[
				{
					"attributes":{
						"POSITION":6,
						"NORMAL":7
					},
					"indices":8,
					"material":2
				},
				{
					"attributes":{
						"POSITION":9,
						"NORMAL":10
					},
					"indices":11,
					"material":3
				},
				{
					"attributes":{
						"POSITION":12,
						"NORMAL":13
					},
					"indices":14,
					"material":0
				},
				{
					"attributes":{
						"POSITION":15,
						"NORMAL":16
					},
					"indices":17,
					"material":4
				}
			]
		},
		{
			"name":"Chien",
			"primitives":[
				{
					"attributes":{
						"POSITION":18,
						"NORMAL":19
					},
					"indices":20,
					"material":0
				}
			]
		},
		{
			"name":"Detente",
			"primitives":[
				{
					"attributes":{
						"POSITION":21,
						"NORMAL":22
					},
					"indices":23,
					"material":0
				}
			]
		},
		{
			"name":"Chargeur",
			"primitives":[
				{
					"attributes":{
						"POSITION":24,
						"NORMAL":25
					},
					"indices":26,
					"material":0
				},
				{
					"attributes":{
						"POSITION":27,
						"NORMAL":28
					},
					"indices":29,
					"material":2
				}
			]
		}
	],
	"accessors":[
		{
			"bufferView":0,
			"componentType":5126,
			"count":3299,
			"max":[
				0.01549999974668026,
				0.027500001713633537,
				0.06000000238418579
			],
			"min":[
				-0.01549999974668026,
				-0.015999997034668922,
				-0.1720000058412552
			],
			"type":"VEC3"
		},
		{
			"bufferView":1,
			"componentType":5126,
			"count":3299,
			"type":"VEC3"
		},
		{
			"bufferView":2,
			"componentType":5123,
			"count":12984,
			"type":"SCALAR"
		},
		{
			"bufferView":3,
			"componentType":5126,
			"count":216,
			"max":[
				0.006800000090152025,
				0.026899999007582664,
				0.05230000242590904
			],
			"min":[
				-0.006800000090152025,
				0.022700002416968346,
				-0.15320000052452087
			],
			"type":"VEC3"
		},
		{
			"bufferView":4,
			"componentType":5126,
			"count":216,
			"type":"VEC3"
		},
		{
			"bufferView":5,
			"componentType":5123,
			"count":396,
			"type":"SCALAR"
		},
		{
			"bufferView":6,
			"componentType":5126,
			"count":3187,
			"max":[
				0.014499999582767487,
				0.014000000432133675,
				0.08474305272102356
			],
			"min":[
				-0.014499999582767487,
				-0.11870439350605011,
				-0.15800000727176666
			],
			"type":"VEC3"
		},
		{
			"bufferView":7,
			"componentType":5126,
			"count":3187,
			"type":"VEC3"
		},
		{
			"bufferView":8,
			"componentType":5123,
			"count":6360,
			"type":"SCALAR"
		},
		{
			"bufferView":9,
			"componentType":5126,
			"count":305,
			"max":[
				0.015799999237060547,
				-0.008695163764059544,
				0.07294676452875137
			],
			"min":[
				-0.015799999237060547,
				-0.10226057469844818,
				0.014569799415767193
			],
			"type":"VEC3"
		},
		{
			"bufferView":10,
			"componentType":5126,
			"count":305,
			"type":"VEC3"
		},
		{
			"bufferView":11,
			"componentType":5123,
			"count":1128,
			"type":"SCALAR"
		},
		{
			"bufferView":12,
			"componentType":5126,
			"count":142,
			"max":[
				-0.014199999161064625,
				0.012500000186264515,
				0.04800000041723251
			],
			"min":[
				-0.018200000748038292,
				0.0010000001639127731,
				-0.04600000008940697
			],
			"type":"VEC3"
		},
		{
			"bufferView":13,
			"componentType":5126,
			"count":142,
			"type":"VEC3"
		},
		{
			"bufferView":14,
			"componentType":5123,
			"count":648,
			"type":"SCALAR"
		},
		{
			"bufferView":15,
			"componentType":5126,
			"count":360,
			"max":[
				0.009200000204145908,
				0.04450000077486038,
				-0.0279999990016222
			],
			"min":[
				-0.009200000204145908,
				0.023099999874830246,
				-0.1738000214099884
			],
			"type":"VEC3"
		},
		{
			"bufferView":16,
			"componentType":5126,
			"count":360,
			"type":"VEC3"
		},
		{
			"bufferView":17,
			"componentType":5123,
			"count":900,
			"type":"SCALAR"
		},
		{
			"bufferView":18,
			"componentType":5126,
			"count":368,
			"max":[
				0.00419999985024333,
				0.02199999988079071,
				0.01000000536441803
			],
			"min":[
				-0.00419999985024333,
				-0.0040000006556510925,
				-0.003999993205070496
			],
			"type":"VEC3"
		},
		{
			"bufferView":19,
			"componentType":5126,
			"count":368,
			"type":"VEC3"
		},
		{
			"bufferView":20,
			"componentType":5123,
			"count":1200,
			"type":"SCALAR"
		},
		{
			"bufferView":21,
			"componentType":5126,
			"count":172,
			"max":[
				0.0034000000450760126,
				0.0007900642231106758,
				0.010254859924316406
			],
			"min":[
				-0.0034000000450760126,
				-0.026992138475179672,
				-0.003663092851638794
			],
			"type":"VEC3"
		},
		{
			"bufferView":22,
			"componentType":5126,
			"count":172,
			"type":"VEC3"
		},
		{
			"bufferView":23,
			"componentType":5123,
			"count":564,
			"type":"SCALAR"
		},
		{
			"bufferView":24,
			"componentType":5126,
			"count":97,
			"max":[
				0.010400000028312206,
				0.00736776739358902,
				0.06263835728168488
			],
			"min":[
				-0.010400000028312206,
				-0.12700943648815155,
				-0.009329148568212986
			],
			"type":"VEC3"
		},
		{
			"bufferView":25,
			"componentType":5126,
			"count":97,
			"type":"VEC3"
		},
		{
			"bufferView":26,
			"componentType":5123,
			"count":324,
			"type":"SCALAR"
		},
		{
			"bufferView":27,
			"componentType":5126,
			"count":94,
			"max":[
				0.01360000018030405,
				-0.11422059684991837,
				0.0681593269109726
			],
			"min":[
				-0.01360000018030405,
				-0.13481459021568298,
				0.02366374433040619
			],
			"type":"VEC3"
		},
		{
			"bufferView":28,
			"componentType":5126,
			"count":94,
			"type":"VEC3"
		},
		{
			"bufferView":29,
			"componentType":5123,
			"count":324,
			"type":"SCALAR"
		}
	],
	"bufferViews":[
		{
			"buffer":0,
			"byteLength":39588,
			"byteOffset":0,
			"target":34962
		},
		{
			"buffer":0,
			"byteLength":39588,
			"byteOffset":39588,
			"target":34962
		},
		{
			"buffer":0,
			"byteLength":25968,
			"byteOffset":79176,
			"target":34963
		},
		{
			"buffer":0,
			"byteLength":2592,
			"byteOffset":105144,
			"target":34962
		},
		{
			"buffer":0,
			"byteLength":2592,
			"byteOffset":107736,
			"target":34962
		},
		{
			"buffer":0,
			"byteLength":792,
			"byteOffset":110328,
			"target":34963
		},
		{
			"buffer":0,
			"byteLength":38244,
			"byteOffset":111120,
			"target":34962
		},
		{
			"buffer":0,
			"byteLength":38244,
			"byteOffset":149364,
			"target":34962
		},
		{
			"buffer":0,
			"byteLength":12720,
			"byteOffset":187608,
			"target":34963
		},
		{
			"buffer":0,
			"byteLength":3660,
			"byteOffset":200328,
			"target":34962
		},
		{
			"buffer":0,
			"byteLength":3660,
			"byteOffset":203988,
			"target":34962
		},
		{
			"buffer":0,
			"byteLength":2256,
			"byteOffset":207648,
			"target":34963
		},
		{
			"buffer":0,
			"byteLength":1704,
			"byteOffset":209904,
			"target":34962
		},
		{
			"buffer":0,
			"byteLength":1704,
			"byteOffset":211608,
			"target":34962
		},
		{
			"buffer":0,
			"byteLength":1296,
			"byteOffset":213312,
			"target":34963
		},
		{
			"buffer":0,
			"byteLength":4320,
			"byteOffset":214608,
			"target":34962
		},
		{
			"buffer":0,
			"byteLength":4320,
			"byteOffset":218928,
			"target":34962
		},
		{
			"buffer":0,
			"byteLength":1800,
			"byteOffset":223248,
			"target":34963
		},
		{
			"buffer":0,
			"byteLength":4416,
			"byteOffset":225048,
			"target":34962
		},
		{
			"buffer":0,
			"byteLength":4416,
			"byteOffset":229464,
			"target":34962
		},
		{
			"buffer":0,
			"byteLength":2400,
			"byteOffset":233880,
			"target":34963
		},
		{
			"buffer":0,
			"byteLength":2064,
			"byteOffset":236280,
			"target":34962
		},
		{
			"buffer":0,
			"byteLength":2064,
			"byteOffset":238344,
			"target":34962
		},
		{
			"buffer":0,
			"byteLength":1128,
			"byteOffset":240408,
			"target":34963
		},
		{
			"buffer":0,
			"byteLength":1164,
			"byteOffset":241536,
			"target":34962
		},
		{
			"buffer":0,
			"byteLength":1164,
			"byteOffset":242700,
			"target":34962
		},
		{
			"buffer":0,
			"byteLength":648,
			"byteOffset":243864,
			"target":34963
		},
		{
			"buffer":0,
			"byteLength":1128,
			"byteOffset":244512,
			"target":34962
		},
		{
			"buffer":0,
			"byteLength":1128,
			"byteOffset":245640,
			"target":34962
		},
		{
			"buffer":0,
			"byteLength":648,
			"byteOffset":246768,
			"target":34963
		}
	],
	"buffers":[
		{
			"byteLength":247416,
			"uri":"arme_pistolet.bin"
		}
	]
}
