{
	"asset":{
		"generator":"Khronos glTF Blender I/O v4.0.44",
		"version":"2.0"
	},
	"extensionsUsed":[
		"KHR_materials_emissive_strength"
	],
	"scene":0,
	"scenes":[
		{
			"name":"Scene",
			"nodes":[
				0,
				1,
				2,
				3,
				4,
				5
			]
		}
	],
	"nodes":[
		{
			"mesh":0,
			"name":"Corps"
		},
		{
			"mesh":1,
			"name":"Culasse",
			"translation":[
				0,
				0.014999999664723873,
				0
			]
		},
		{
			"mesh":2,
			"name":"Detente",
			"translation":[
				0,
				-0.039000000804662704,
				0.012000000104308128
			]
		},
		{
			"mesh":3,
			"name":"Chargeur",
			"translation":[
				0,
				-0.041999999433755875,
				-0.06499999761581421
			]
		},
		{
			"name":"Bouche",
			"translation":[
				0,
				0,
				-0.6650000214576721
			]
		},
		{
			"name":"Visee",
			"translation":[
				0,
				0.07249999791383743,
				0.04349999874830246
			]
		}
	],
	"materials":[
		{
			"doubleSided":true,
			"name":"acier_noir",
			"pbrMetallicRoughness":{
				"baseColorFactor":[
					0.03310476616024971,
					0.03310476616024971,
					0.036306485533714294,
					1
				],
				"metallicFactor":0.75,
				"roughnessFactor":0.41999998688697815
			}
		},
		{
			"doubleSided":true,
			"name":"polymere",
			"pbrMetallicRoughness":{
				"baseColorFactor":[
					0.015325203537940979,
					0.015325203537940979,
					0.01633814536035061,
					1
				],
				"metallicFactor":0,
				"roughnessFactor":0.6499999761581421
			}
		},
		{
			"doubleSided":true,
			"name":"caoutchouc",
			"pbrMetallicRoughness":{
				"baseColorFactor":[
					0.010022825561463833,
					0.010022825561463833,
					0.010022825561463833,
					1
				],
				"metallicFactor":0,
				"roughnessFactor":0.8999999761581421
			}
		},
		{
			"doubleSided":true,
			"name":"verre",
			"pbrMetallicRoughness":{
				"baseColorFactor":[
					0.003935939632356167,
					0.005981059744954109,
					0.007194409146904945,
					1
				],
				"metallicFactor":0,
				"roughnessFactor":0.05000000074505806
			}
		},
		{
			"doubleSided":true,
			"emissiveFactor":[
				1,
				0.0134117491543293,
				0.003935939632356167
			],
			"extensions":{
				"KHR_materials_emissive_strength":{
					"emissiveStrength":4
				}
			},
			"name":"reticule",
			"pbrMetallicRoughness":{
				"baseColorFactor":[
					1,
					0.01960664801299572,
					0.007194409146904945,
					1
				],
				"metallicFactor":0,
				"roughnessFactor":0.4000000059604645
			}
		},
		{
			"doubleSided":true,
			"name":"acier_brut",
			"pbrMetallicRoughness":{
				"baseColorFactor":[
					0.23302200436592102,
					0.23302200436592102,
					0.24286681413650513,
					1
				],
				"roughnessFactor":0.2800000011920929
			}
		}
	],
	"meshes":[
		{
			"name":"Corps",
			"primitives":[
				{
					"attributes":{
						"POSITION":0,
						"NORMAL":1
					},
					"indices":2,
					"material":0
				},
				{
					"attributes":{
						"POSITION":3,
						"NORMAL":4
					},
					"indices":5,
					"material":1
				},
				{
					"attributes":{
						"POSITION":6,
						"NORMAL":7
					},
					"indices":8,
					"material":2
				},
				{
					"attributes":{
						"POSITION":9,
						"NORMAL":10
					},
					"indices":11,
					"material":3
				},
				{
					"attributes":{
						"POSITION":12,
						"NORMAL":13
					},
					"indices":14,
					"material":4
				}
			]
		},
		{
			"name":"Culasse",
			"primitives":[
				{
					"attributes":{
						"POSITION":15,
						"NORMAL":16
					},
					"indices":17,
					"material":5
				}
			]
		},
		{
			"name":"Detente",
			"primitives":[
				{
					"attributes":{
						"POSITION":18,
						"NORMAL":19
					},
					"indices":20,
					"material":0
				}
			]
		},
		{
			"name":"Chargeur",
			"primitives":[
				{
					"attributes":{
						"POSITION":21,
						"NORMAL":22
					},
					"indices":23,
					"material":1
				}
			]
		}
	],
	"accessors":[
		{
			"bufferView":0,
			"componentType":5126,
			"count":9365,
			"max":[
				0.02850000001490116,
				0.09049999713897705,
				0.33500000834465027
			],
			"min":[
				-0.024944748729467392,
				-0.07800000160932541,
				-0.6579999923706055
			],
			"type":"VEC3"
		},
		{
			"bufferView":1,
			"componentType":5126,
			"count":9365,
			"type":"VEC3"
		},
		{
			"bufferView":2,
			"componentType":5123,
			"count":27504,
			"type":"SCALAR"
		},
		{
			"bufferView":3,
			"componentType":5126,
			"count":628,
			"max":[
				0.02199999988079071,
				0.01900000125169754,
				0.3720000088214874
			],
			"min":[
				-0.02199999988079071,
				-0.1502503603696823,
				0.062319230288267136
			],
			"type":"VEC3"
		},
		{
			"bufferView":4,
			"componentType":5126,
			"count":628,
			"type":"VEC3"
		},
		{
			"bufferView":5,
			"componentType":5123,
			"count":1992,
			"type":"SCALAR"
		},
		{
			"bufferView":6,
			"componentType":5126,
			"count":72,
			"max":[
				0.023000000044703484,
				0.02199999988079071,
				0.38599997758865356
			],
			"min":[
				-0.023000000044703484,
				-0.08799999952316284,
				0.3709999918937683
			],
			"type":"VEC3"
		},
		{
			"bufferView":7,
			"componentType":5126,
			"count":72,
			"type":"VEC3"
		},
		{
			"bufferView":8,
			"componentType":5123,
			"count":324,
			"type":"SCALAR"
		},
		{
			"bufferView":9,
			"componentType":5126,
			"count":24,
			"max":[
				0.015300000086426735,
				0.08730000257492065,
				0.042500000447034836
			],
			"min":[
				-0.015300000086426735,
				0.054499998688697815,
				0.04149999842047691
			],
			"type":"VEC3"
		},
		{
			"bufferView":10,
			"componentType":5126,
			"count":24,
			"type":"VEC3"
		},
		{
			"bufferView":11,
			"componentType":5123,
			"count":36,
			"type":"SCALAR"
		},
		{
			"bufferView":12,
			"componentType":5126,
			"count":712,
			"max":[
				0.0027600000612437725,
				0.07525999844074249,
				0.043699998408555984
			],
			"min":[
				-0.0027600000612437725,
				0.06973999738693237,
				0.043299999088048935
			],
			"type":"VEC3"
		},
		{
			"bufferView":13,
			"componentType":5126,
			"count":712,
			"type":"VEC3"
		},
		{
			"bufferView":14,
			"componentType":5123,
			"count":1284,
			"type":"SCALAR"
		},
		{
			"bufferView":15,
			"componentType":5126,
			"count":145,
			"max":[
				0.01679999940097332,
				0.012500000186264515,
				0.03999999910593033
			],
			"min":[
				-0.012000000104308128,
				-0.011999999172985554,
				-0.05000000447034836
			],
			"type":"VEC3"
		},
		{
			"bufferView":16,
			"componentType":5126,
			"count":145,
			"type":"VEC3"
		},
		{
			"bufferView":17,
			"componentType":5123,
			"count":660,
			"type":"SCALAR"
		},
		{
			"bufferView":18,
			"componentType":5126,
			"count":207,
			"max":[
				0.003000000026077032,
				0.0004862174391746521,
				0.008072057738900185
			],
			"min":[
				-0.003000000026077032,
				-0.02510640397667885,
				-0.0037308549508452415
			],
			"type":"VEC3"
		},
		{
			"bufferView":19,
			"componentType":5126,
			"count":207,
			"type":"VEC3"
		},
		{
			"bufferView":20,
			"componentType":5123,
			"count":564,
			"type":"SCALAR"
		},
		{
			"bufferView":21,
			"componentType":5126,
			"count":5832,
			"max":[
				0.013799999840557575,
				0.003407631069421768,
				0.032774750143289566
			],
			"min":[
				-0.013799999840557575,
				-0.21774959564208984,
				-0.0929161012172699
			],
			"type":"VEC3"
		},
		{
			"bufferView":22,
			"componentType":5126,
			"count":5832,
			"type":"VEC3"
		},
		{
			"bufferView":23,
			"componentType":5123,
			"count":9108,
			"type":"SCALAR"
		}
	],
	"bufferViews":[
		{
			"buffer":0,
			"byteLength":112380,
			"byteOffset":0,
			"target":34962
		},
		{
			"buffer":0,
			"byteLength":112380,
			"byteOffset":112380,
			"target":34962
		},
		{
			"buffer":0,
			"byteLength":55008,
			"byteOffset":224760,
			"target":34963
		},
		{
			"buffer":0,
			"byteLength":7536,
			"byteOffset":279768,
			"target":34962
		},
		{
			"buffer":0,
			"byteLength":7536,
			"byteOffset":287304,
			"target":34962
		},
		{
			"buffer":0,
			"byteLength":3984,
			"byteOffset":294840,
			"target":34963
		},
		{
			"buffer":0,
			"byteLength":864,
			"byteOffset":298824,
			"target":34962
		},
		{
			"buffer":0,
			"byteLength":864,
			"byteOffset":299688,
			"target":34962
		},
		{
			"buffer":0,
			"byteLength":648,
			"byteOffset":300552,
			"target":34963
		},
		{
			"buffer":0,
			"byteLength":288,
			"byteOffset":301200,
			"target":34962
		},
		{
			"buffer":0,
			"byteLength":288,
			"byteOffset":301488,
			"target":34962
		},
		{
			"buffer":0,
			"byteLength":72,
			"byteOffset":301776,
			"target":34963
		},
		{
			"buffer":0,
			"byteLength":8544,
			"byteOffset":301848,
			"target":34962
		},
		{
			"buffer":0,
			"byteLength":8544,
			"byteOffset":310392,
			"target":34962
		},
		{
			"buffer":0,
			"byteLength":2568,
			"byteOffset":318936,
			"target":34963
		},
		{
			"buffer":0,
			"byteLength":1740,
			"byteOffset":321504,
			"target":34962
		},
		{
			"buffer":0,
			"byteLength":1740,
			"byteOffset":323244,
			"target":34962
		},
		{
			"buffer":0,
			"byteLength":1320,
			"byteOffset":324984,
			"target":34963
		},
		{
			"buffer":0,
			"byteLength":2484,
			"byteOffset":326304,
			"target":34962
		},
		{
			"buffer":0,
			"byteLength":2484,
			"byteOffset":328788,
			"target":34962
		},
		{
			"buffer":0,
			"byteLength":1128,
			"byteOffset":331272,
			"target":34963
		},
		{
			"buffer":0,
			"byteLength":69984,
			"byteOffset":332400,
			"target":34962
		},
		{
			"buffer":0,
			"byteLength":69984,
			"byteOffset":402384,
			"target":34962
		},
		{
			"buffer":0,
			"byteLength":18216,
			"byteOffset":472368,
			"target":34963
		}
	],
	"buffers":[
		{
			"byteLength":490584,
			"uri":"arme_fusil.bin"
		}
	]
}
